<svg xmlns="http://www.w3.org/2000/svg" width="1440" height="900"><path d="M870,493L892,386L652,318Z" fill="#4a2f70" stroke="#4a2f70" stroke-width="1.51"/><path d="M652,318L546,563L870,493Z" fill="#452b69" stroke="#452b69" stroke-width="1.51"/><path d="M892,386L853,163L652,318Z" fill="#513678" stroke="#513678" stroke-width="1.51"/><path d="M652,318L337,346L546,563Z" fill="#4f3778" stroke="#4f3778" stroke-width="1.51"/><path d="M853,163L569,193L652,318Z" fill="#523a7c" stroke="#523a7c" stroke-width="1.51"/><path d="M892,386L1011,145L853,163Z" fill="#5a3e84" stroke="#5a3e84" stroke-width="1.51"/><path d="M870,493L1065,329L892,386Z" fill="#513277" stroke="#513277" stroke-width="1.51"/><path d="M1065,329L1011,145L892,386Z" fill="#5a3c83" stroke="#5a3c83" stroke-width="1.51"/><path d="M853,163L675,-30L569,193Z" fill="#584285" stroke="#584285" stroke-width="1.51"/><path d="M870,493L1091,618L1065,329Z" fill="#533178" stroke="#533178" stroke-width="1.51"/><path d="M796,816L1091,618L870,493Z" fill="#58347e" stroke="#58347e" stroke-width="1.51"/><path d="M546,563L796,816L870,493Z" fill="#4e2f73" stroke="#4e2f73" stroke-width="1.51"/><path d="M560,767L796,816L546,563Z" fill="#57367e" stroke="#57367e" stroke-width="1.51"/><path d="M569,193L337,346L652,318Z" fill="#564082" stroke="#564082" stroke-width="1.51"/><path d="M546,563L412,709L560,767Z" fill="#5b3d85" stroke="#5b3d85" stroke-width="1.51"/><path d="M337,346L356,570L546,563Z" fill="#543c7e" stroke="#543c7e" stroke-width="1.51"/><path d="M1065,329L1244,91L1011,145Z" fill="#664692" stroke="#664692" stroke-width="1.51"/><path d="M1091,618L1199,361L1065,329Z" fill="#57347d" stroke="#57347d" stroke-width="1.51"/><path d="M569,193L424,75L337,346Z" fill="#5e498e" stroke="#5e498e" stroke-width="1.51"/><path d="M882,-42L675,-30L853,163Z" fill="#60498f" stroke="#60498f" stroke-width="1.51"/><path d="M356,570L412,709L546,563Z" fill="#5b3e85" stroke="#5b3e85" stroke-width="1.51"/><path d="M1011,145L882,-42L853,163Z" fill="#624790" stroke="#624790" stroke-width="1.51"/><path d="M1056,-70L882,-42L1011,145Z" fill="#6a4e9a" stroke="#6a4e9a" stroke-width="1.51"/><path d="M675,-30L424,75L569,193Z" fill="#604c91" stroke="#604c91" stroke-width="1.51"/><path d="M1091,618L1259,592L1199,361Z" fill="#5e3785" stroke="#5e3785" stroke-width="1.51"/><path d="M796,816L1082,829L1091,618Z" fill="#633a8a" stroke="#633a8a" stroke-width="1.51"/><path d="M1277,752L1259,592L1091,618Z" fill="#683c8f" stroke="#683c8f" stroke-width="1.51"/><path d="M337,346L225,620L356,570Z" fill="#5a4287" stroke="#5a4287" stroke-width="1.51"/><path d="M356,570L225,620L412,709Z" fill="#61458d" stroke="#61458d" stroke-width="1.51"/><path d="M424,75L208,296L337,346Z" fill="#624e93" stroke="#624e93" stroke-width="1.51"/><path d="M208,296L225,620L337,346Z" fill="#5a4588" stroke="#5a4588" stroke-width="1.51"/><path d="M1244,91L1056,-70L1011,145Z" fill="#6e4f9d" stroke="#6e4f9d" stroke-width="1.51"/><path d="M581,-252L413,-157L675,-30Z" fill="#614993" stroke="#614993" stroke-width="1.51"/><path d="M1472,161L1244,91L1199,361Z" fill="#6e499a" stroke="#6e499a" stroke-width="1.51"/><path d="M1199,361L1244,91L1065,329Z" fill="#65428f" stroke="#65428f" stroke-width="1.51"/><path d="M796,816L989,959L1082,829Z" fill="#683c90" stroke="#683c90" stroke-width="1.51"/><path d="M1082,829L1277,752L1091,618Z" fill="#6a3d91" stroke="#6a3d91" stroke-width="1.51"/><path d="M844,1024L989,959L796,816Z" fill="#673b8e" stroke="#673b8e" stroke-width="1.51"/><path d="M561,982L796,816L560,767Z" fill="#603a88" stroke="#603a88" stroke-width="1.51"/><path d="M431,1041L561,982L560,767Z" fill="#694393" stroke="#694393" stroke-width="1.51"/><path d="M431,1041L560,767L412,709Z" fill="#674492" stroke="#674492" stroke-width="1.51"/><path d="M561,982L844,1024L796,816Z" fill="#603886" stroke="#603886" stroke-width="1.51"/><path d="M1259,592L1471,500L1199,361Z" fill="#613887" stroke="#613887" stroke-width="1.51"/><path d="M1253,1027L1277,752L1082,829Z" fill="#75439e" stroke="#75439e" stroke-width="1.51"/><path d="M11,557L143,729L225,620Z" fill="#684c97" stroke="#684c97" stroke-width="1.51"/><path d="M424,75L154,161L208,296Z" fill="#69569d" stroke="#69569d" stroke-width="1.51"/><path d="M141,-141L154,161L424,75Z" fill="#7362ab" stroke="#7362ab" stroke-width="1.51"/><path d="M675,-30L413,-157L424,75Z" fill="#665199" stroke="#665199" stroke-width="1.51"/><path d="M581,-252L675,-30L892,-345Z" fill="#593d86" stroke="#593d86" stroke-width="1.51"/><path d="M892,-345L675,-30L882,-42Z" fill="#5e438d" stroke="#5e438d" stroke-width="1.51"/><path d="M225,620L143,729L412,709Z" fill="#684b96" stroke="#684b96" stroke-width="1.51"/><path d="M11,557L225,620L208,296Z" fill="#5f488d" stroke="#5f488d" stroke-width="1.51"/><path d="M666,1233L865,1181L844,1024Z" fill="#6a3c8f" stroke="#6a3c8f" stroke-width="1.51"/><path d="M143,729L431,1041L412,709Z" fill="#6d4b9b" stroke="#6d4b9b" stroke-width="1.51"/><path d="M1501,749L1471,500L1259,592Z" fill="#6c3d92" stroke="#6c3d92" stroke-width="1.51"/><path d="M581,-252L461,-270L413,-157Z" fill="#634a95" stroke="#634a95" stroke-width="1.51"/><path d="M413,-157L141,-141L424,75Z" fill="#6e5aa4" stroke="#6e5aa4" stroke-width="1.51"/><path d="M-99,321L11,557L208,296Z" fill="#5e478e" stroke="#5e478e" stroke-width="1.51"/><path d="M1525,275L1472,161L1199,361Z" fill="#6d4697" stroke="#6d4697" stroke-width="1.51"/><path d="M1244,91L1299,-129L1056,-70Z" fill="#7452a4" stroke="#7452a4" stroke-width="1.51"/><path d="M1445,-63L1299,-129L1244,91Z" fill="#7955aa" stroke="#7955aa" stroke-width="1.51"/><path d="M1056,-70L892,-345L882,-42Z" fill="#654594" stroke="#654594" stroke-width="1.51"/><path d="M1087,-343L892,-345L1056,-70Z" fill="#674395" stroke="#674395" stroke-width="1.51"/><path d="M581,-252L892,-345L461,-270Z" fill="#5b3e89" stroke="#5b3e89" stroke-width="1.51"/><path d="M989,959L1253,1027L1082,829Z" fill="#73429b" stroke="#73429b" stroke-width="1.51"/><path d="M844,1024L1039,1136L989,959Z" fill="#6f3f95" stroke="#6f3f95" stroke-width="1.51"/><path d="M666,1233L844,1024L561,982Z" fill="#663b8b" stroke="#663b8b" stroke-width="1.51"/><path d="M865,1181L1039,1136L844,1024Z" fill="#6f3f95" stroke="#6f3f95" stroke-width="1.51"/><path d="M1277,752L1501,749L1259,592Z" fill="#6f4097" stroke="#6f4097" stroke-width="1.51"/><path d="M1471,500L1525,275L1199,361Z" fill="#663d8d" stroke="#663d8d" stroke-width="1.51"/><path d="M1039,1136L1253,1027L989,959Z" fill="#76429c" stroke="#76429c" stroke-width="1.51"/><path d="M1420,979L1501,749L1277,752Z" fill="#7944a1" stroke="#7944a1" stroke-width="1.51"/><path d="M1471,500L1742,557L1525,275Z" fill="#673b8b" stroke="#673b8b" stroke-width="1.51"/><path d="M431,1041L666,1233L561,982Z" fill="#6d4495" stroke="#6d4495" stroke-width="1.51"/><path d="M865,1181L1256,1205L1039,1136Z" fill="#78439e" stroke="#78439e" stroke-width="1.51"/><path d="M1299,-129L1087,-343L1056,-70Z" fill="#6f4a9e" stroke="#6f4a9e" stroke-width="1.51"/><path d="M187,-312L141,-141L413,-157Z" fill="#7059a7" stroke="#7059a7" stroke-width="1.51"/><path d="M154,161L-99,321L208,296Z" fill="#67529a" stroke="#67529a" stroke-width="1.51"/><path d="M1299,-129L1229,-340L1087,-343Z" fill="#70489f" stroke="#70489f" stroke-width="1.51"/><path d="M1472,161L1445,-63L1244,91Z" fill="#7955a8" stroke="#7955a8" stroke-width="1.51"/><path d="M1504,-240L1445,-63L1684,-149Z" fill="#7d52ab" stroke="#7d52ab" stroke-width="1.51"/><path d="M-94,146L-99,321L154,161Z" fill="#69529c" stroke="#69529c" stroke-width="1.51"/><path d="M431,1041L386,1203L666,1233Z" fill="#72489b" stroke="#72489b" stroke-width="1.51"/><path d="M174,1199L386,1203L431,1041Z" fill="#7a51a6" stroke="#7a51a6" stroke-width="1.51"/><path d="M132,1042L431,1041L143,729Z" fill="#7854a7" stroke="#7854a7" stroke-width="1.51"/><path d="M1253,1027L1420,979L1277,752Z" fill="#7c46a4" stroke="#7c46a4" stroke-width="1.51"/><path d="M1425,1219L1420,979L1253,1027Z" fill="#8248a9" stroke="#8248a9" stroke-width="1.51"/><path d="M-106,741L143,729L11,557Z" fill="#694998" stroke="#694998" stroke-width="1.51"/><path d="M-91,947L132,1042L143,729Z" fill="#7852a7" stroke="#7852a7" stroke-width="1.51"/><path d="M5,-73L-94,146L154,161Z" fill="#725da8" stroke="#725da8" stroke-width="1.51"/><path d="M1504,-240L1229,-340L1299,-129Z" fill="#764ca5" stroke="#764ca5" stroke-width="1.51"/><path d="M141,-141L5,-73L154,161Z" fill="#7663af" stroke="#7663af" stroke-width="1.51"/><path d="M-300,598L-106,741L11,557Z" fill="#634292" stroke="#634292" stroke-width="1.51"/><path d="M141,-141L-40,-323L5,-73Z" fill="#7259a9" stroke="#7259a9" stroke-width="1.51"/><path d="M461,-270L187,-312L413,-157Z" fill="#6a519e" stroke="#6a519e" stroke-width="1.51"/><path d="M892,-345L187,-312L461,-270Z" fill="#614591" stroke="#614591" stroke-width="1.51"/><path d="M666,1233L1256,1205L865,1181Z" fill="#734198" stroke="#734198" stroke-width="1.51"/><path d="M1039,1136L1256,1205L1253,1027Z" fill="#7d46a4" stroke="#7d46a4" stroke-width="1.51"/><path d="M132,1042L174,1199L431,1041Z" fill="#7d56ab" stroke="#7d56ab" stroke-width="1.51"/><path d="M386,1203L17,1221L666,1233Z" fill="#7b51a6" stroke="#7b51a6" stroke-width="1.51"/><path d="M17,1221L174,1199L132,1042Z" fill="#8158af" stroke="#8158af" stroke-width="1.51"/><path d="M1445,-63L1504,-240L1299,-129Z" fill="#7a50a9" stroke="#7a50a9" stroke-width="1.51"/><path d="M1706,93L1445,-63L1472,161Z" fill="#7e56ac" stroke="#7e56ac" stroke-width="1.51"/><path d="M1525,275L1706,93L1472,161Z" fill="#774fa2" stroke="#774fa2" stroke-width="1.51"/><path d="M1501,749L1742,557L1471,500Z" fill="#6f3f95" stroke="#6f3f95" stroke-width="1.51"/><path d="M1761,836L1742,557L1501,749Z" fill="#79449e" stroke="#79449e" stroke-width="1.51"/><path d="M1629,1018L1501,749L1420,979Z" fill="#8148a8" stroke="#8148a8" stroke-width="1.51"/><path d="M-106,741L-91,947L143,729Z" fill="#704da0" stroke="#704da0" stroke-width="1.51"/><path d="M1755,282L1706,93L1525,275Z" fill="#774da0" stroke="#774da0" stroke-width="1.51"/><path d="M1742,557L1755,282L1525,275Z" fill="#6d4193" stroke="#6d4193" stroke-width="1.51"/><path d="M-99,321L-266,350L11,557Z" fill="#5b4089" stroke="#5b4089" stroke-width="1.51"/><path d="M-106,741L-203,796L-91,947Z" fill="#70499f" stroke="#70499f" stroke-width="1.51"/><path d="M-246,148L-266,350L-99,321Z" fill="#624793" stroke="#624793" stroke-width="1.51"/><path d="M-246,148L-99,321L-94,146Z" fill="#674d9a" stroke="#674d9a" stroke-width="1.51"/><path d="M-300,598L-203,796L-106,741Z" fill="#684296" stroke="#684296" stroke-width="1.51"/><path d="M-275,-119L-94,146L5,-73Z" fill="#725baa" stroke="#725baa" stroke-width="1.51"/><path d="M-275,-119L-246,148L-94,146Z" fill="#6f56a6" stroke="#6f56a6" stroke-width="1.51"/><path d="M1256,1205L1425,1219L1253,1027Z" fill="#8449aa" stroke="#8449aa" stroke-width="1.51"/><path d="M666,1233L1425,1219L1256,1205Z" fill="#7d45a3" stroke="#7d45a3" stroke-width="1.51"/><path d="M1425,1219L1629,1018L1420,979Z" fill="#864aac" stroke="#864aac" stroke-width="1.51"/><path d="M-275,-119L-300,598L-266,350Z" fill="#614391" stroke="#614391" stroke-width="1.51"/><path d="M-266,350L-300,598L11,557Z" fill="#5a3c88" stroke="#5a3c88" stroke-width="1.51"/><path d="M187,-312L-40,-323L141,-141Z" fill="#7158a9" stroke="#7158a9" stroke-width="1.51"/><path d="M892,-345L-40,-323L187,-312Z" fill="#694d9d" stroke="#694d9d" stroke-width="1.51"/><path d="M1706,93L1684,-149L1445,-63Z" fill="#8158b0" stroke="#8158b0" stroke-width="1.51"/><path d="M1703,-347L1684,-149L1706,93Z" fill="#8255af" stroke="#8255af" stroke-width="1.51"/><path d="M1629,1018L1761,836L1501,749Z" fill="#8248a9" stroke="#8248a9" stroke-width="1.51"/><path d="M1742,557L1761,836L1755,282Z" fill="#714095" stroke="#714095" stroke-width="1.51"/><path d="M174,1199L17,1221L386,1203Z" fill="#845bb1" stroke="#845bb1" stroke-width="1.51"/><path d="M-91,947L17,1221L132,1042Z" fill="#7d53ac" stroke="#7d53ac" stroke-width="1.51"/><path d="M-183,1230L17,1221L-91,947Z" fill="#7d50ab" stroke="#7d50ab" stroke-width="1.51"/><path d="M-203,796L-214,955L-91,947Z" fill="#7449a3" stroke="#7449a3" stroke-width="1.51"/><path d="M-300,598L-214,955L-203,796Z" fill="#6c439a" stroke="#6c439a" stroke-width="1.51"/><path d="M-246,148L-275,-119L-266,350Z" fill="#6a4f9f" stroke="#6a4f9f" stroke-width="1.51"/><path d="M-40,-323L-275,-119L5,-73Z" fill="#7054a7" stroke="#7054a7" stroke-width="1.51"/><path d="M1684,-149L1703,-347L1504,-240Z" fill="#7e4eab" stroke="#7e4eab" stroke-width="1.51"/><path d="M1504,-240L1703,-347L1229,-340Z" fill="#784aa6" stroke="#784aa6" stroke-width="1.51"/><path d="M1229,-340L1703,-347L1087,-343Z" fill="#7447a2" stroke="#7447a2" stroke-width="1.51"/><path d="M1087,-343L1703,-347L892,-345Z" fill="#70459e" stroke="#70459e" stroke-width="1.51"/><path d="M1755,282L1703,-347L1706,93Z" fill="#865bb4" stroke="#865bb4" stroke-width="1.51"/><path d="M892,-345L-208,-333L-40,-323Z" fill="#6f55a6" stroke="#6f55a6" stroke-width="1.51"/><path d="M-40,-323L-208,-333L-275,-119Z" fill="#6d4ea3" stroke="#6d4ea3" stroke-width="1.51"/><path d="M17,1221L-183,1230L666,1233Z" fill="#855bb2" stroke="#855bb2" stroke-width="1.51"/><path d="M-214,955L-183,1230L-91,947Z" fill="#794ca7" stroke="#794ca7" stroke-width="1.51"/><path d="M-300,598L-183,1230L-214,955Z" fill="#7448a2" stroke="#7448a2" stroke-width="1.51"/><path d="M1629,1018L1746,1266L1761,836Z" fill="#8b4caf" stroke="#8b4caf" stroke-width="1.51"/><path d="M1425,1219L1746,1266L1629,1018Z" fill="#8c4db0" stroke="#8c4db0" stroke-width="1.51"/><path d="M666,1233L1746,1266L1425,1219Z" fill="#864aac" stroke="#864aac" stroke-width="1.51"/><path d="M-183,1230L1746,1266L666,1233Z" fill="#6b3c8e" stroke="#6b3c8e" stroke-width="1.51"/></svg>